<svg height="512pt" viewBox="0 -25 512.00075 512" width="512pt" xmlns="http://www.w3.org/2000/svg"><path d="m379.203125 431.960938h-85.929687l-30.003907 30.003906h115.933594c8.285156 0 15.003906-6.71875 15.003906-15 0-8.285156-6.71875-15.003906-15.003906-15.003906zm0 0"/><path d="m345.253906 4.394531c-2.8125-2.8125-6.628906-4.394531-10.609375-4.394531-3.976562 0-7.792969 1.582031-10.605469 4.394531l-190.765624 190.765625c-5.855469 5.855469-5.855469 15.355469 0 21.214844l162.355468 162.351562c2.929688 2.929688 6.769532 4.394532 10.605469 4.394532 3.839844 0 7.679687-1.464844 10.609375-4.394532l190.761719-190.761718c5.859375-5.859375 5.859375-15.359375 0-21.214844zm0 0"/><path d="m278.691406 404.113281-53.457031 53.457031c-2.8125 2.8125-6.625 4.394532-10.605469 4.394532l-149.601562.011718c-3.980469 0-7.796875-1.578124-10.609375-4.394531l-32.566407-32.566406c-29.136718-29.132813-29.136718-76.535156 0-105.667969l86.035157-86.039062zm0 0"/></svg>