<?xml version="1.0" encoding="iso-8859-1"?>
<!-- Generator: Adobe Illustrator 19.0.0, SVG Export Plug-In . SVG Version: 6.00 Build 0)  -->
<svg version="1.1" id="Capa_1" xmlns="http://www.w3.org/2000/svg" xmlns:xlink="http://www.w3.org/1999/xlink" x="0px" y="0px"
	 viewBox="0 0 512.001 512.001" style="enable-background:new 0 0 512.001 512.001;" xml:space="preserve">
<g>
	<g>
		<path d="M506.402,339.732c-6.981-5.642-10.664-3.211-18.2-0.251c-23.915,65.162-82.779,107.609-149.511,107.609
			c-28.843,0-57.07-8.13-81.519-23.232c-0.125,0.077-0.264,0.128-0.388,0.205c5.198,7.678,11.025,15.15,18.23,22.163
			c24.917,23.538,60.573,38.599,99.13,38.599c76.23,0,123.834-46.348,137.663-131.001
			C512.671,348.492,510.606,343.116,506.402,339.732z"/>
	</g>
</g>
<g>
	<g>
		<path d="M175.345,447.091c-68.123,0-126.233-44.388-148.98-106.523c-8.848-3.459-13.131-6.954-20.766-0.835
			c-4.204,3.384-6.27,8.76-5.405,14.092c13.828,84.667,61.202,131,137.461,131c38.423,0,73.123-14.963,98.276-38.745
			c6.431-6.253,11.836-12.929,16.688-19.812C229.158,439.794,202.957,447.091,175.345,447.091z"/>
	</g>
</g>
<g>
	<g>
		<path d="M262.05,28.907c-4.38-2.3-9.565-2.314-13.945-0.015C200.702,53.707,46,145.349,46,282.794
			c0,74.048,58.022,134.297,129.346,134.297c23.132,0,45.258-6.372,64.763-18.14c-24.086-29.694-34.975-68.452-29.313-107.397
			c1.187-8.203,8.701-14.033,16.992-12.686c8.203,1.187,13.887,8.789,12.686,16.992c-4.601,31.787,4.408,63.487,24.74,86.968
			c18.823,21.768,45.601,34.248,73.462,34.248c0.02,0,0.035,0.011,0.055,0.011c60.359-0.018,113.039-42.535,126.936-104.894
			C470.34,273.199,468.534,137.511,262.05,28.907z"/>
	</g>
</g>
<g>
</g>
<g>
</g>
<g>
</g>
<g>
</g>
<g>
</g>
<g>
</g>
<g>
</g>
<g>
</g>
<g>
</g>
<g>
</g>
<g>
</g>
<g>
</g>
<g>
</g>
<g>
</g>
<g>
</g>
</svg>
