<svg height="512pt" viewBox="0 0 512 512" width="512pt" xmlns="http://www.w3.org/2000/svg"><path d="m304.917969 335.082031 106.027343 106.027344-43.585937 43.582031c-4.585937 4.566406-5.929687 11.457032-3.476563 17.429688 2.472657 5.976562 8.296876 9.878906 14.785157 9.878906h117.332031c8.832031 0 16-7.167969 16-16v-117.332031c0-6.464844-3.902344-12.3125-9.878906-14.785157-1.984375-.8125-4.050782-1.214843-6.121094-1.214843-4.160156 0-8.257812 1.621093-11.308594 4.691406l-43.582031 43.585937-106.027344-106.027343c-4.160156-4.160157-9.621093-6.25-15.082031-6.25s-10.921875 2.089843-15.082031 6.25c-8.34375 8.339843-8.34375 21.824219 0 30.164062zm0 0"/><path d="m274.753906 365.246094c-12.097656-12.074219-18.753906-28.15625-18.753906-45.246094s6.65625-33.171875 18.753906-45.246094c12.074219-12.097656 28.15625-18.753906 45.246094-18.753906s33.171875 6.65625 45.246094 18.753906l61.421875 61.394532v-277.480469c0-32.363281-26.304688-58.667969-58.667969-58.667969h-309.332031c-32.363281 0-58.667969 26.304688-58.667969 58.667969v309.332031c0 32.363281 26.304688 58.667969 58.667969 58.667969h277.503906zm0 0"/></svg>