<?xml version="1.0" encoding="iso-8859-1"?>
<!-- Generator: Adobe Illustrator 19.1.0, SVG Export Plug-In . SVG Version: 6.00 Build 0)  -->
<svg version="1.1" id="Capa_1" xmlns="http://www.w3.org/2000/svg" xmlns:xlink="http://www.w3.org/1999/xlink" x="0px" y="0px"
	 viewBox="0 0 63.019 63.019" style="enable-background:new 0 0 63.019 63.019;" xml:space="preserve">
<g>
	<g>
		<g id="group-28svg">
			<path id="path-1_21_" d="M22.26,56.156c-1.217,0-2.36-0.473-3.22-1.33c-0.028-0.03-0.056-0.06-0.083-0.091L0.356,32.824
				c-0.378-0.446-0.463-1.071-0.218-1.601s0.776-0.87,1.361-0.87h12.663c0.766-13.494,11.27-23.489,24.997-23.489
				c10.732,0,20.221,6.776,23.687,16.888c0.11,0.209,0.173,0.648,0.173,0.901c0,0.828-0.671,1.7-1.5,1.7c-0.005,0-0.012,0-0.02,0
				c-0.298,0-0.596-0.289-0.854-0.467c-3.6-2.494-7.934-3.912-12.533-3.912c-6.88,0-13.159,3.024-17.269,8.379h12.233
				c0.584,0,1.116,0.34,1.361,0.87c0.245,0.531,0.16,1.156-0.219,1.602L25.617,54.707c-0.025,0.031-0.053,0.061-0.081,0.089
				C24.66,55.673,23.496,56.156,22.26,56.156z M21.198,52.739c0.589,0.552,1.584,0.535,2.179-0.029l16.454-19.357H28.024
				c-0.538,0-1.036-0.289-1.303-0.756c-0.267-0.468-0.263-1.043,0.011-1.507c4.516-7.649,12.509-12.217,21.38-12.217
				c3.595,0,7.053,0.715,10.201,2.092c-3.86-6.777-11.11-11.101-19.154-11.101c-12.73,0-22,9.25-22.041,21.994
				c-0.003,0.826-0.674,1.495-1.5,1.495H4.741L21.198,52.739z"/>
		</g>
	</g>
	<g>
	</g>
	<g>
	</g>
	<g>
	</g>
	<g>
	</g>
	<g>
	</g>
	<g>
	</g>
	<g>
	</g>
	<g>
	</g>
	<g>
	</g>
	<g>
	</g>
	<g>
	</g>
	<g>
	</g>
	<g>
	</g>
	<g>
	</g>
	<g>
	</g>
</g>
<g>
</g>
<g>
</g>
<g>
</g>
<g>
</g>
<g>
</g>
<g>
</g>
<g>
</g>
<g>
</g>
<g>
</g>
<g>
</g>
<g>
</g>
<g>
</g>
<g>
</g>
<g>
</g>
<g>
</g>
</svg>
