<svg height="512pt" viewBox="0 0 512 512.01112" width="512pt" xmlns="http://www.w3.org/2000/svg"><path d="m256.003906 192.011719c-11.796875 0-21.332031 9.558593-21.332031 21.332031v256c0 11.777344 9.535156 21.335938 21.332031 21.335938 11.800782 0 21.335938-9.558594 21.335938-21.335938v-256c0-11.773438-9.535156-21.332031-21.335938-21.332031zm0 0"/><path d="m465.285156 180.0625-135.0625 135.105469c-.277344.234375-2.023437 1.769531-2.28125 2.027343-5.121094 5.078126-7.9375 11.753907-7.9375 18.816407 0 6.613281 2.414063 12.949219 7.042969 18.132812l138.472656 149.140625c4.929688 5.460938 12.308594 8.726563 19.820313 8.726563 14.699218 0 26.664062-11.96875 26.664062-26.667969v-288c0-21.738281-26.984375-37.675781-46.71875-17.28125zm0 0"/><path d="m47.558594 180.9375c-.257813-.296875-1.8125-2.089844-2.113282-2.367188-5.078124-5.097656-11.753906-7.890624-18.773437-7.890624-14.699219 0-26.66796875 11.964843-26.66796875 26.664062v288c0 14.699219 11.96874975 26.667969 26.66796875 26.667969 7.507813 0 14.890625-3.265625 19.628906-8.535157l138.878907-149.566406c4.414062-4.949218 6.824218-11.285156 6.824218-17.898437 0-7.0625-2.8125-13.738281-9.363281-20.054688zm0 0"/><path d="m426.671875 133.34375v-117.332031c0-6.464844-3.902344-12.308594-9.878906-14.785157-5.972657-2.496093-12.863281-1.109374-17.425781 3.476563l-39.105469 39.105469c-35.820313-27.820313-79.871094-43.7968752-125.589844-43.7968752-62.398437 0-120.875 28.2460932-160.425781 77.5234372-7.382813 9.175782-5.910156 22.613282 3.285156 29.996094 9.214844 7.402344 22.632812 5.929688 29.972656-3.285156 31.425782-39.125 77.78125-61.566406 127.167969-61.566406 34.367187 0 67.585937 11.453124 95.210937 31.507812l-47.851562 47.851562c-4.585938 4.5625-5.929688 11.453126-3.476562 17.429688 2.476562 5.972656 8.300781 9.875 14.785156 9.875h117.332031c8.832031 0 16-7.167969 16-16zm0 0"/></svg>