<svg height="512pt" viewBox="0 0 512 512" width="512pt" xmlns="http://www.w3.org/2000/svg"><path d="m213.332031 234.667969c-11.773437 0-21.332031 9.554687-21.332031 21.332031s9.558594 21.332031 21.332031 21.332031h256c11.777344 0 21.335938-9.554687 21.335938-21.332031s-9.558594-21.332031-21.335938-21.332031zm0 0"/><path d="m353.898438 326.828125c-10.175782-9.046875-25.492188-10.242187-37.953126 2.558594l-134.976562 135.039062c-.316406.277344-2.132812 1.835938-2.410156 2.132813-5.097656 5.078125-7.890625 11.734375-7.890625 18.773437 0 14.699219 11.964843 26.667969 26.664062 26.667969h288c14.699219 0 26.667969-11.96875 26.667969-26.667969 0-7.488281-3.265625-14.890625-8.535156-19.625zm0 0"/><path d="m315.09375 181.695312c.277344.320313 1.855469 2.15625 2.175781 2.453126 5.078125 5.058593 11.734375 7.851562 18.730469 7.851562 6.613281 0 12.949219-2.433594 18.132812-7.039062l149.164063-138.519532c5.546875-4.992187 8.703125-12.203125 8.703125-19.773437 0-14.699219-11.96875-26.667969-26.667969-26.667969h-288c-14.699219 0-26.664062 11.96875-26.664062 26.667969 0 6.996093 2.792969 13.652343 9.386719 20.050781zm0 0"/><path d="m139.457031 278.550781c-5.972656-2.496093-12.863281-1.109375-17.429687 3.476563l-47.851563 47.851562c-20.054687-27.628906-31.507812-60.84375-31.507812-95.210937 0-49.386719 22.441406-95.722657 61.566406-127.148438 9.171875-7.382812 10.644531-20.820312 3.265625-29.996093-7.382812-9.171876-20.78125-10.621094-29.996094-3.285157-49.257812 39.574219-77.503906 98.050781-77.503906 160.429688 0 45.714843 15.980469 89.769531 43.777344 125.589843l-39.085938 39.101563c-4.5625 4.566406-5.949218 11.457031-3.476562 17.429687 2.476562 5.972657 8.320312 9.878907 14.785156 9.878907h117.332031c8.832031 0 16-7.167969 16-16v-117.335938c0-6.460937-3.902343-12.308593-9.875-14.78125zm0 0"/></svg>