<svg height="512.01067pt" viewBox="0 0 512.01067 512.01067" width="512.01067pt" xmlns="http://www.w3.org/2000/svg"><path d="m505.753906 240.921875-85.332031-85.332031c-6.101563-6.101563-15.273437-7.9375-23.253906-4.628906-7.957031 3.304687-13.164063 11.09375-13.164063 19.710937v64h-256v-64c0-8.617187-5.203125-16.40625-13.160156-19.710937-7.980469-3.308594-17.152344-1.472657-23.253906 4.628906l-85.332032 85.332031c-8.34375 8.34375-8.34375 21.824219 0 30.167969l85.332032 85.332031c6.101562 6.101563 15.273437 7.933594 23.253906 4.628906 7.957031-3.308593 13.160156-11.09375 13.160156-19.710937v-64h256v64c0 8.617187 5.207032 16.402344 13.164063 19.710937 7.980469 3.304688 17.152343 1.472657 23.253906-4.628906l85.332031-85.332031c8.34375-8.34375 8.34375-21.824219 0-30.167969zm0 0"/><path d="m240.921875 6.257812-85.332031 85.332032c-6.101563 6.101562-7.9375 15.273437-4.628906 23.253906 3.304687 7.957031 11.09375 13.160156 19.710937 13.160156h64v256h-64c-8.617187 0-16.40625 5.207032-19.710937 13.164063-3.308594 7.980469-1.472657 17.152343 4.628906 23.253906l85.332031 85.332031c8.34375 8.34375 21.824219 8.34375 30.167969 0l85.332031-85.332031c6.101563-6.101563 7.933594-15.273437 4.628906-23.253906-3.308593-7.957031-11.09375-13.164063-19.710937-13.164063h-64v-256h64c8.617187 0 16.402344-5.203125 19.710937-13.160156 3.304688-7.980469 1.472657-17.152344-4.628906-23.253906l-85.332031-85.332032c-8.34375-8.34375-21.824219-8.34375-30.167969 0zm0 0"/></svg>