<?xml version="1.0" encoding="iso-8859-1"?>
<!-- Generator: Adobe Illustrator 19.0.0, SVG Export Plug-In . SVG Version: 6.00 Build 0)  -->
<svg version="1.1" id="Capa_1" xmlns="http://www.w3.org/2000/svg" xmlns:xlink="http://www.w3.org/1999/xlink" x="0px" y="0px"
	 viewBox="0 0 469.333 469.333" style="enable-background:new 0 0 469.333 469.333;" xml:space="preserve">
<g>
	<g>
		<g>
			<path d="M421.334,244.784c2.946-4.234,5.004-9.221,5.299-15.263c1.416-30.344-34.015-87.125-88.173-141.292
				C284.864,34.635,230.019,0,198.462,0c-10.477,0.146-16.726,4.292-20.101,7.677c-0.044,0.044-28.481,35.217-28.481,35.217
				C96.76,45.255,21.408,82.81,21.408,138.667c0,14.875,5.312,28.104,15.81,39.313c2.916,3.122,6.358,6.026,10.074,8.802
				c0.165,0.137,8.948,5.865,9.107,5.947c27.712,16.048,64.966,20.605,82.323,20.605c29.287,0,50.575-0.792,78.445-11.365
				c5.437-2.042,11.748,0.885,13.727,6.198c1.021,2.667,0.937,5.563-0.229,8.156c-1.167,2.604-3.291,4.594-5.957,5.604
				c-31.182,11.823-55.303,12.74-85.986,12.74s-74.383-8.24-105.045-31.365c-4.562-3.458-11.081-2.677-14.706,1.823L6.807,220.281
				c-2.875,2.885-6.395,8.125-6.77,16.656c-1.208,25.75,27.35,71.698,72.696,117.052c44.201,44.208,89.506,72.76,115.397,72.76
				c0.063,0,0.562,0,0.646,0c9.165-0.177,14.685-3.833,16.831-6.083l209.986-169.49
				C415.655,251.134,420.812,246.074,421.334,244.784z M52.719,163.306c-6.708-7.204-9.981-15.264-9.981-24.639
				c0-35.254,46.674-63.228,87.842-71.853L52.719,163.306z M289.093,137.604c-36.473-36.469-57.22-66.969-67.551-86.656
				c20.58,10.74,51.679,32.375,86.756,67.448c36.286,36.302,56.99,66.896,67.28,86.625
				C355.102,194.281,324.128,172.656,289.093,137.604z"/>
			<path d="M424.771,324.604c-3.958-5.771-13.583-5.771-17.542,0c-7.438,10.771-44.563,65.802-44.563,91.396
				c0,29.406,23.917,53.333,53.333,53.333c29.417,0,53.333-23.927,53.333-53.333C469.333,390.406,432.208,335.375,424.771,324.604z"
				/>
		</g>
	</g>
</g>
<g>
</g>
<g>
</g>
<g>
</g>
<g>
</g>
<g>
</g>
<g>
</g>
<g>
</g>
<g>
</g>
<g>
</g>
<g>
</g>
<g>
</g>
<g>
</g>
<g>
</g>
<g>
</g>
<g>
</g>
</svg>
