<?xml version="1.0" encoding="iso-8859-1"?>
<!-- Generator: Adobe Illustrator 16.0.0, SVG Export Plug-In . SVG Version: 6.00 Build 0)  -->
<!DOCTYPE svg PUBLIC "-//W3C//DTD SVG 1.1//EN" "http://www.w3.org/Graphics/SVG/1.1/DTD/svg11.dtd">
<svg version="1.1" id="Capa_1" xmlns="http://www.w3.org/2000/svg" xmlns:xlink="http://www.w3.org/1999/xlink" x="0px" y="0px"
	 width="32px" height="32px" viewBox="0 0 32 32" style="enable-background:new 0 0 32 32;" xml:space="preserve">
<g>
	<g id="Select">
		<g>
			<path d="M5,0H3C1.346,0,0,1.346,0,3v2c0,0.553,0.447,1,1,1s1-0.447,1-1V3c0-0.551,0.448-1,1-1h2c0.553,0,1-0.448,1-1
				C6,0.447,5.553,0,5,0z M29,0h-2c-0.553,0-1,0.447-1,1c0,0.552,0.447,1,1,1h2c0.552,0,1,0.449,1,1v2c0,0.553,0.447,1,1,1
				s1-0.447,1-1V3C32,1.346,30.654,0,29,0z M31,26c-0.553,0-1,0.447-1,1v2c0,0.551-0.448,1-1,1h-2c-0.553,0-1,0.447-1,1
				c0,0.552,0.447,1,1,1h2c1.654,0,3-1.346,3-3v-2C32,26.447,31.553,26,31,26z M5,30H3c-0.552,0-1-0.449-1-1v-2c0-0.553-0.447-1-1-1
				s-1,0.447-1,1v2c0,1.654,1.346,3,3,3h2c0.553,0,1-0.448,1-1C6,30.447,5.553,30,5,30z M1,20c0.553,0,1-0.448,1-1v-6
				c0-0.553-0.447-1-1-1s-1,0.447-1,1v6C0,19.552,0.447,20,1,20z M31,12c-0.553,0-1,0.447-1,1v6c0,0.552,0.447,1,1,1s1-0.448,1-1v-6
				C32,12.447,31.553,12,31,12z M19,0h-6c-0.553,0-1,0.447-1,1c0,0.552,0.447,1,1,1h6c0.553,0,1-0.448,1-1C20,0.447,19.553,0,19,0z
				 M19,30h-6c-0.553,0-1,0.447-1,1c0,0.552,0.447,1,1,1h6c0.553,0,1-0.448,1-1C20,30.447,19.553,30,19,30z"/>
		</g>
	</g>
</g>
<g>
</g>
<g>
</g>
<g>
</g>
<g>
</g>
<g>
</g>
<g>
</g>
<g>
</g>
<g>
</g>
<g>
</g>
<g>
</g>
<g>
</g>
<g>
</g>
<g>
</g>
<g>
</g>
<g>
</g>
</svg>
