<?xml version="1.0" encoding="UTF-8" standalone="no"?>
<!DOCTYPE svg PUBLIC "-//W3C//DTD SVG 1.1//EN" "http://www.w3.org/Graphics/SVG/1.1/DTD/svg11.dtd">
<svg width="100%" height="100%" viewBox="0 0 16 16" version="1.1" xmlns="http://www.w3.org/2000/svg" xmlns:xlink="http://www.w3.org/1999/xlink" xml:space="preserve" xmlns:serif="http://www.serif.com/" style="fill-rule:evenodd;clip-rule:evenodd;stroke-linecap:round;stroke-linejoin:round;stroke-miterlimit:1.5;">
    <g transform="matrix(1.03448,0,0,1,-0.534483,1.77636e-15)">
        <path d="M15.5,2.15L15.5,13.85C15.5,14.761 14.785,15.5 13.905,15.5L2.595,15.5C1.715,15.5 1,14.761 1,13.85L1,2.15C1,1.239 1.715,0.5 2.595,0.5L13.905,0.5C14.785,0.5 15.5,1.239 15.5,2.15Z" style="fill:none;stroke:black;stroke-width:1px;"/>
    </g>
    <g transform="matrix(0.833333,0.833333,-0.666667,0.666667,6.33333,-3.66667)">
        <path d="M14,7.5L12.8,9L3.2,9L2,7.5L3.2,6L12.8,6L14,7.5Z"/>
    </g>
    <g transform="matrix(0.666667,0.666667,-0.909091,0.909091,9.15152,-4.48485)">
        <path d="M10,3.1L10,11.9L8.5,13L7,11.9L7,3.1L8.5,2L10,3.1Z"/>
    </g>
</svg>
